<?xml version="1.0" encoding="us-ascii" standalone="no"?><svg xmlns="http://www.w3.org/2000/svg" xmlns:xlink="http://www.w3.org/1999/xlink" contentStyleType="text/css" height="836px" preserveAspectRatio="none" style="width:858px;height:836px;background:#FFFFFF;" version="1.1" viewBox="0 0 858 836" width="858px" zoomAndPan="magnify"><defs/><g><!--cluster Central cluster--><g id="cluster_Central cluster"><rect fill="none" height="679" rx="2.5" ry="2.5" style="stroke:#181818;stroke-width:1.0;" width="566" x="93.5" y="7"/><text fill="#000000" font-family="sans-serif" font-size="14" font-weight="bold" lengthAdjust="spacing" textLength="104" x="324.5" y="23.5332">Central cluster</text></g><!--cluster configdb--><g id="cluster_configdb"><path d="M117.5,175 C117.5,165 376.5,165 376.5,165 C376.5,165 635.5,165 635.5,175 L635.5,260 C635.5,270 376.5,270 376.5,270 C376.5,270 117.5,270 117.5,260 L117.5,175 " fill="none" style="stroke:#181818;stroke-width:1.0;"/><path d="M117.5,175 C117.5,185 376.5,185 376.5,185 C376.5,185 635.5,185 635.5,175 " fill="none" style="stroke:#181818;stroke-width:1.0;"/><text fill="#000000" font-family="sans-serif" font-size="14" font-weight="bold" lengthAdjust="spacing" textLength="66" x="343.5" y="201.5332">ConfigDB</text></g><!--cluster rvous--><g id="cluster_rvous"><path d="M324.5,468 C324.5,458 437,458 437,458 C437,458 549.5,458 549.5,468 L549.5,553 C549.5,563 437,563 437,563 C437,563 324.5,563 324.5,553 L324.5,468 " fill="none" style="stroke:#181818;stroke-width:1.0;"/><path d="M324.5,468 C324.5,478 437,478 437,478 C437,478 549.5,478 549.5,468 " fill="none" style="stroke:#181818;stroke-width:1.0;"/><text fill="#000000" font-family="sans-serif" font-size="14" font-weight="bold" lengthAdjust="spacing" textLength="88" x="393" y="494.5332">Rendezvous</text></g><!--cluster Edge cluster--><g id="cluster_Edge cluster"><rect fill="none" height="243" rx="2.5" ry="2.5" style="stroke:#181818;stroke-width:1.0;" width="126" x="683.5" y="320"/><text fill="#000000" font-family="sans-serif" font-size="14" font-weight="bold" lengthAdjust="spacing" textLength="89" x="702" y="336.5332">Edge cluster</text></g><!--entity manager--><g id="elem_manager"><rect fill="#F1F1F1" height="37.6094" rx="2.5" ry="2.5" style="stroke:#181818;stroke-width:0.5;" width="76" x="149.5" y="43"/><text fill="#000000" font-family="sans-serif" font-size="14" lengthAdjust="spacing" textLength="56" x="159.5" y="67.5332">Manager</text></g><!--entity auth--><g id="elem_auth"><rect fill="#F1F1F1" height="37.6094" rx="2.5" ry="2.5" style="stroke:#181818;stroke-width:0.5;" width="49" x="569" y="509"/><text fill="#000000" font-family="sans-serif" font-size="14" lengthAdjust="spacing" textLength="29" x="579" y="533.5332">Auth</text></g><!--entity mqtt--><g id="elem_mqtt"><rect fill="#F1F1F1" height="37.6094" rx="2.5" ry="2.5" style="stroke:#181818;stroke-width:0.5;" width="60" x="563.5" y="632"/><text fill="#000000" font-family="sans-serif" font-size="14" lengthAdjust="spacing" textLength="40" x="573.5" y="656.5332">MQTT</text></g><!--entity recon--><g id="elem_recon"><rect fill="#F1F1F1" height="37.6094" rx="2.5" ry="2.5" style="stroke:#181818;stroke-width:0.5;" width="105" x="354" y="356"/><text fill="#000000" font-family="sans-serif" font-size="14" lengthAdjust="spacing" textLength="85" x="364" y="380.5332">Reconcilation</text></g><!--entity connection--><g id="elem_connection"><path d="M134,218.5 L134,251.1094 A2.5,2.5 0 0 0 136.5,253.6094 L280.5,253.6094 A2.5,2.5 0 0 0 283,251.1094 L283,226 L273,216 L136.5,216 A2.5,2.5 0 0 0 134,218.5 " fill="#F1F1F1" style="stroke:#181818;stroke-width:0.5;"/><path d="M273,216 L273,223.5 A2.5,2.5 0 0 0 275.5,226 L283,226 " fill="#F1F1F1" style="stroke:#181818;stroke-width:0.5;"/><text fill="#000000" font-family="sans-serif" font-size="14" lengthAdjust="spacing" textLength="129" x="144" y="240.5332">Connection/Instance</text></g><!--entity deployment--><g id="elem_deployment"><path d="M318.5,218.5 L318.5,251.1094 A2.5,2.5 0 0 0 321,253.6094 L446,253.6094 A2.5,2.5 0 0 0 448.5,251.1094 L448.5,226 L438.5,216 L321,216 A2.5,2.5 0 0 0 318.5,218.5 " fill="#F1F1F1" style="stroke:#181818;stroke-width:0.5;"/><path d="M438.5,216 L438.5,223.5 A2.5,2.5 0 0 0 441,226 L448.5,226 " fill="#F1F1F1" style="stroke:#181818;stroke-width:0.5;"/><text fill="#000000" font-family="sans-serif" font-size="14" lengthAdjust="spacing" textLength="110" x="328.5" y="240.5332">Edge deployment</text></g><!--entity config--><g id="elem_config"><path d="M483.5,218.5 L483.5,251.1094 A2.5,2.5 0 0 0 486,253.6094 L617,253.6094 A2.5,2.5 0 0 0 619.5,251.1094 L619.5,226 L609.5,216 L486,216 A2.5,2.5 0 0 0 483.5,218.5 " fill="#F1F1F1" style="stroke:#181818;stroke-width:0.5;"/><path d="M609.5,216 L609.5,223.5 A2.5,2.5 0 0 0 612,226 L619.5,226 " fill="#F1F1F1" style="stroke:#181818;stroke-width:0.5;"/><text fill="#000000" font-family="sans-serif" font-size="14" lengthAdjust="spacing" textLength="116" x="493.5" y="240.5332">Edge Agent config</text></g><!--entity rvreq--><g id="elem_rvreq"><path d="M341,511.5 L341,544.1094 A2.5,2.5 0 0 0 343.5,546.6094 L411.5,546.6094 A2.5,2.5 0 0 0 414,544.1094 L414,519 L404,509 L343.5,509 A2.5,2.5 0 0 0 341,511.5 " fill="#F1F1F1" style="stroke:#181818;stroke-width:0.5;"/><path d="M404,509 L404,516.5 A2.5,2.5 0 0 0 406.5,519 L414,519 " fill="#F1F1F1" style="stroke:#181818;stroke-width:0.5;"/><text fill="#000000" font-family="sans-serif" font-size="14" lengthAdjust="spacing" textLength="53" x="351" y="533.5332">Request</text></g><!--entity rvres--><g id="elem_rvres"><path d="M449.5,511.5 L449.5,544.1094 A2.5,2.5 0 0 0 452,546.6094 L531,546.6094 A2.5,2.5 0 0 0 533.5,544.1094 L533.5,519 L523.5,509 L452,509 A2.5,2.5 0 0 0 449.5,511.5 " fill="#F1F1F1" style="stroke:#181818;stroke-width:0.5;"/><path d="M523.5,509 L523.5,516.5 A2.5,2.5 0 0 0 526,519 L533.5,519 " fill="#F1F1F1" style="stroke:#181818;stroke-width:0.5;"/><text fill="#000000" font-family="sans-serif" font-size="14" lengthAdjust="spacing" textLength="64" x="459.5" y="533.5332">Response</text></g><!--entity sync--><g id="elem_sync"><rect fill="#F1F1F1" height="37.6094" rx="2.5" ry="2.5" style="stroke:#181818;stroke-width:0.5;" width="88" x="699.5" y="356"/><text fill="#000000" font-family="sans-serif" font-size="14" lengthAdjust="spacing" textLength="68" x="709.5" y="380.5332">Edge Sync</text></g><!--entity agent--><g id="elem_agent"><rect fill="#F1F1F1" height="37.6094" rx="2.5" ry="2.5" style="stroke:#181818;stroke-width:0.5;" width="94" x="699.5" y="509"/><text fill="#000000" font-family="sans-serif" font-size="14" lengthAdjust="spacing" textLength="74" x="709.5" y="533.5332">Edge Agent</text></g><!--entity admin--><g id="elem_admin"><ellipse cx="41.5" cy="31.5" fill="#F1F1F1" rx="8" ry="8" style="stroke:#181818;stroke-width:0.5;"/><path d="M41.5,39.5 L41.5,66.5 M28.5,47.5 L54.5,47.5 M41.5,66.5 L28.5,81.5 M41.5,66.5 L54.5,81.5 " fill="none" style="stroke:#181818;stroke-width:0.5;"/><text fill="#000000" font-family="sans-serif" font-size="14" lengthAdjust="spacing" textLength="71" x="6" y="97.5332">Admin user</text></g><!--entity consumer--><g id="elem_consumer"><ellipse cx="491.5" cy="761.5" fill="#F1F1F1" rx="8" ry="8" style="stroke:#181818;stroke-width:0.5;"/><path d="M491.5,769.5 L491.5,796.5 M478.5,777.5 L504.5,777.5 M491.5,796.5 L478.5,811.5 M491.5,796.5 L504.5,811.5 " fill="none" style="stroke:#181818;stroke-width:0.5;"/><text fill="#000000" font-family="sans-serif" font-size="14" lengthAdjust="spacing" textLength="65" x="459" y="827.5332">Consumer</text></g><!--entity device--><g id="elem_device"><polygon fill="#F1F1F1" points="705,637,715,627,788,627,788,664.6094,778,674.6094,705,674.6094,705,637" style="stroke:#181818;stroke-width:0.5;"/><line style="stroke:#181818;stroke-width:0.5;" x1="778" x2="788" y1="637" y2="627"/><line style="stroke:#181818;stroke-width:0.5;" x1="705" x2="778" y1="637" y2="637"/><line style="stroke:#181818;stroke-width:0.5;" x1="778" x2="778" y1="637" y2="674.6094"/><text fill="#000000" font-family="sans-serif" font-size="14" lengthAdjust="spacing" textLength="43" x="720" y="661.5332">Device</text></g><!--link admin to manager--><g id="link_admin_manager"><path d="M77.22,62 C99.08,62 121.05,62 143.34,62 " fill="none" id="admin-to-manager" style="stroke:#181818;stroke-width:1.0;"/><polygon fill="#181818" points="149.34,62,140.34,58,144.34,62,140.34,66,149.34,62" style="stroke:#181818;stroke-width:1.0;"/><text fill="#000000" font-family="sans-serif" font-size="13" lengthAdjust="spacing" textLength="15" x="105.75" y="55.4951">[1]</text></g><!--link manager to connection--><g id="link_manager_connection"><path d="M189.75,81.3 C193.79,114.21 201.5087,177.0547 205.5387,209.8747 " fill="none" id="manager-to-connection" style="stroke:#181818;stroke-width:2.0;"/><polygon fill="#181818" points="206.27,215.83,209.1433,206.4096,205.6606,210.8673,201.2029,207.3846,206.27,215.83" style="stroke:#181818;stroke-width:2.0;"/><text fill="#000000" font-family="sans-serif" font-size="13" lengthAdjust="spacing" textLength="15" x="198.5" y="145.4951">[2]</text></g><!--reverse link rvreq to consumer--><g id="link_rvreq_consumer"><path d="M387.7337,552.5118 C406.0937,594.7118 449.83,695.24 474.81,752.65 " fill="none" id="rvreq-backto-consumer" style="stroke:#181818;stroke-width:2.0;"/><polygon fill="#181818" points="385.34,547.01,385.2626,556.8586,387.3347,551.5949,392.5984,553.667,385.34,547.01" style="stroke:#181818;stroke-width:2.0;"/><text fill="#000000" font-family="sans-serif" font-size="13" lengthAdjust="spacing" textLength="15" x="448.5" y="656.4951">[3]</text></g><!--reverse link recon to rvreq--><g id="link_recon_rvreq"><path d="M401.8694,400.1025 C396.2994,429.1325 386.59,479.66 381.01,508.72 " fill="none" id="recon-backto-rvreq" style="stroke:#181818;stroke-width:1.0;"/><polygon fill="#181818" points="403,394.21,397.3758,402.295,402.0578,399.1204,405.2324,403.8025,403,394.21" style="stroke:#181818;stroke-width:1.0;"/><text fill="#000000" font-family="sans-serif" font-size="13" lengthAdjust="spacing" textLength="15" x="397.5" y="438.4951">[4]</text></g><!--link connection to recon--><g id="link_connection_recon"><path d="M234.39,254.04 C272.33,280.49 337.7376,326.0692 375.6876,352.5192 " fill="none" id="connection-to-recon" style="stroke:#181818;stroke-width:1.0;"/><polygon fill="#181818" points="380.61,355.95,375.5136,347.5223,376.508,353.091,370.9392,354.0855,380.61,355.95" style="stroke:#181818;stroke-width:1.0;"/><text fill="#000000" font-family="sans-serif" font-size="13" lengthAdjust="spacing" textLength="15" x="302.5" y="300.4951">[4]</text></g><!--reverse link deployment to recon--><g id="link_deployment_recon"><path d="M387.4946,259.9587 C391.8946,286.4087 399.08,329.5 403.49,355.95 " fill="none" id="deployment-backto-recon" style="stroke:#181818;stroke-width:2.0;"/><polygon fill="#181818" points="386.51,254.04,384.0411,263.5744,387.3305,258.9722,391.9326,262.2616,386.51,254.04" style="stroke:#181818;stroke-width:2.0;"/><text fill="#000000" font-family="sans-serif" font-size="13" lengthAdjust="spacing" textLength="15" x="394.5" y="300.4951">[5]</text></g><!--reverse link config to recon--><g id="link_config_recon"><path d="M528.1939,258.1766 C500.4039,284.6266 453.25,329.5 425.46,355.95 " fill="none" id="config-backto-recon" style="stroke:#181818;stroke-width:2.0;"/><polygon fill="#181818" points="532.54,254.04,523.2631,257.3474,528.9182,257.4871,528.7785,263.1423,532.54,254.04" style="stroke:#181818;stroke-width:2.0;"/><text fill="#000000" font-family="sans-serif" font-size="13" lengthAdjust="spacing" textLength="15" x="496.5" y="300.4951">[5]</text></g><!--link recon to auth--><g id="link_recon_auth"><path d="M457.95,394.14 C487.37,406.44 523.48,425.04 549.5,450 C566.94,466.73 577.2131,486.3696 584.3531,503.3396 " fill="none" id="recon-to-auth" style="stroke:#181818;stroke-width:1.0;"/><polygon fill="#181818" points="586.68,508.87,586.8766,499.0231,584.7409,504.2613,579.5027,502.1256,586.68,508.87" style="stroke:#181818;stroke-width:1.0;"/><text fill="#000000" font-family="sans-serif" font-size="13" lengthAdjust="spacing" textLength="15" x="540.5" y="438.4951">[6]</text></g><!--link recon to rvres--><g id="link_recon_rvres"><path d="M416.75,394.21 C433.09,423.24 461.9066,474.4316 478.2666,503.4916 " fill="none" id="recon-to-rvres" style="stroke:#181818;stroke-width:2.0;"/><polygon fill="#181818" points="481.21,508.72,480.2804,498.9151,478.7571,504.363,473.3092,502.8397,481.21,508.72" style="stroke:#181818;stroke-width:2.0;"/><text fill="#000000" font-family="sans-serif" font-size="13" lengthAdjust="spacing" textLength="15" x="441.5" y="438.4951">[6]</text></g><!--link deployment to sync--><g id="link_deployment_sync"><path d="M411.88,254.13 C427.38,263.05 447.29,272.94 466.5,278 C503.29,287.69 602.03,272.25 637.5,286 C675.41,300.7 705.7395,330.1905 724.5095,351.3605 " fill="none" id="deployment-to-sync" style="stroke:#181818;stroke-width:1.0;"/><polygon fill="#181818" points="728.49,355.85,725.5122,346.4621,725.1729,352.1088,719.5262,351.7695,728.49,355.85" style="stroke:#181818;stroke-width:1.0;"/><text fill="#000000" font-family="sans-serif" font-size="13" lengthAdjust="spacing" textLength="15" x="670.5" y="300.4951">[7]</text></g><!--link sync to agent--><g id="link_sync_agent"><path d="M743.86,394.21 C744.44,423.24 745.4403,473.6612 746.0203,502.7212 " fill="none" id="sync-to-agent" style="stroke:#181818;stroke-width:2.0;"/><polygon fill="#181818" points="746.14,508.72,749.9596,499.642,746.0402,503.721,741.9612,499.8016,746.14,508.72" style="stroke:#181818;stroke-width:2.0;"/><text fill="#000000" font-family="sans-serif" font-size="13" lengthAdjust="spacing" textLength="15" x="745.5" y="438.4951">[7]</text></g><!--link config to agent--><g id="link_config_agent"><path d="M619.77,247.06 C687.14,259.54 783.2,282.05 805.5,312 C851.5,373.78 793.9201,464.6226 764.4001,504.1526 " fill="none" id="config-to-agent" style="stroke:#181818;stroke-width:1.0;"/><polygon fill="#181818" points="760.81,508.96,769.4001,504.1422,763.8017,504.9538,762.9901,499.3555,760.81,508.96" style="stroke:#181818;stroke-width:1.0;"/><text fill="#000000" font-family="sans-serif" font-size="13" lengthAdjust="spacing" textLength="15" x="822.5" y="380.4951">[7]</text></g><!--reverse link agent to device--><g id="link_agent_device"><path d="M746.5,553.11 C746.5,574.34 746.5,603.56 746.5,626.78 " fill="none" id="agent-backto-device" style="stroke:#181818;stroke-width:1.0;"/><polygon fill="#181818" points="746.5,547.11,742.5,556.11,746.5,552.11,750.5,556.11,746.5,547.11" style="stroke:#181818;stroke-width:1.0;"/><text fill="#000000" font-family="sans-serif" font-size="13" lengthAdjust="spacing" textLength="15" x="747.5" y="593.4951">[7]</text></g><!--link agent to mqtt--><g id="link_agent_mqtt"><path d="M723.59,547.11 C694.75,569.93 650.1863,605.1683 621.2663,628.0383 " fill="none" id="agent-to-mqtt" style="stroke:#181818;stroke-width:1.0;"/><polygon fill="#181818" points="616.56,631.76,626.1005,629.3149,620.4819,628.6586,621.1382,623.0399,616.56,631.76" style="stroke:#181818;stroke-width:1.0;"/><text fill="#000000" font-family="sans-serif" font-size="13" lengthAdjust="spacing" textLength="15" x="679.5" y="593.4951">[7]</text></g><!--link rvres to consumer--><g id="link_rvres_consumer"><path d="M489.82,547.04 C488.09,566.69 485.5,599.04 484.5,627 C483.44,656.76 483.43,664.24 484.5,694 C485.2,713.4 486.2042,728.9689 487.6242,746.8189 " fill="none" id="rvres-to-consumer" style="stroke:#181818;stroke-width:1.0;"/><polygon fill="#181818" points="488.1,752.8,491.3737,743.5111,487.7035,747.8157,483.3989,744.1455,488.1,752.8" style="stroke:#181818;stroke-width:1.0;"/><text fill="#000000" font-family="sans-serif" font-size="13" lengthAdjust="spacing" textLength="15" x="485.5" y="656.4951">[8]</text></g><!--link auth to mqtt--><g id="link_auth_mqtt"><path d="M593.5,547.11 C593.5,569.93 593.5,602.89 593.5,625.76 " fill="none" id="auth-to-mqtt" style="stroke:#181818;stroke-width:1.0;"/><polygon fill="#181818" points="593.5,631.76,597.5,622.76,593.5,626.76,589.5,622.76,593.5,631.76" style="stroke:#181818;stroke-width:1.0;"/><text fill="#000000" font-family="sans-serif" font-size="13" lengthAdjust="spacing" textLength="15" x="594.5" y="593.4951">[8]</text></g><!--link mqtt to consumer--><g id="link_mqtt_consumer"><path d="M580.17,670.17 C564.83,691.07 542.7807,721.1234 523.0107,748.0534 " fill="none" id="mqtt-to-consumer" style="stroke:#181818;stroke-width:1.0;"/><polygon fill="#181818" points="519.46,752.89,528.0104,748.0022,522.4189,748.8595,521.5616,743.268,519.46,752.89" style="stroke:#181818;stroke-width:1.0;"/><text fill="#000000" font-family="sans-serif" font-size="13" lengthAdjust="spacing" textLength="15" x="552.5" y="719.4951">[8]</text></g><!--SRC=[TPDDRuCm38Rl-HKMTpJjizEaLkhQ7NROOLrl4uUKf0m90YMXKZVrly-90mk5SNBiXpUlRU2fgHg8bgBC5RHQDX5m3TmU6QVQgbAwBNqbzGUcAY4XMijZdafN4Ivah96fuIehiBgIoZIyWBHejR42FmpmuHdc8NhZ2YEIBIaEoylMV94P30RllM-tzDB1cB2maUWkpGjkyaeveh4PvXZ13TznBLq_-pnRFtVzu47il3NxxFE2A8MTeDBLgzBOaMypxVCNBxo8JE8Gwg8wbMZ7pwGxJi5BPviS16OSUcQNjZTI2Vbzh5fDhTbev7eZ3wtKnXEDF8pgkiODoXxGtMtdmUQSl-crkTB7IQLEGsCmghh6Q7SsijhkYuAuoUD5j-pE6Jp1vtN2kknylWY6t1Ct2MFTnmVpjaRADHY8t2QCKd5RupLk-G3XDNS92wHZKGqn8XXbw8w_3VR8VJ8WQ6c3QteYHdtx-SBWGUAXrn2LxqIF21PSRfNih4DabZ2N8WrQm51aHaEp_k89mYFqv_gfNK14KDAk3dyvW0aDHYrOc_sMGkGHHUmWudz5a725QGbF_080]--></g></svg>