<?xml version="1.0" encoding="us-ascii" standalone="no"?><svg xmlns="http://www.w3.org/2000/svg" xmlns:xlink="http://www.w3.org/1999/xlink" contentStyleType="text/css" height="807px" preserveAspectRatio="none" style="width:1070px;height:807px;background:#FFFFFF;" version="1.1" viewBox="0 0 1070 807" width="1070px" zoomAndPan="magnify"><defs/><g><!--cluster Central cluster--><g id="cluster_Central cluster"><rect fill="none" height="653" rx="2.5" ry="2.5" style="stroke:#181818;stroke-width:1.0;" width="566" x="93.5" y="7"/><text fill="#000000" font-family="sans-serif" font-size="14" font-weight="bold" lengthAdjust="spacing" textLength="104" x="324.5" y="23.5332">Central cluster</text></g><!--cluster configdb--><g id="cluster_configdb"><path d="M117.5,195 C117.5,185 376.5,185 376.5,185 C376.5,185 635.5,185 635.5,195 L635.5,315 C635.5,325 376.5,325 376.5,325 C376.5,325 117.5,325 117.5,315 L117.5,195 " fill="none" style="stroke:#181818;stroke-width:1.0;"/><path d="M117.5,195 C117.5,205 376.5,205 376.5,205 C376.5,205 635.5,205 635.5,195 " fill="none" style="stroke:#181818;stroke-width:1.0;"/><text fill="#000000" font-family="sans-serif" font-size="14" font-weight="bold" lengthAdjust="spacing" textLength="66" x="343.5" y="221.5332">ConfigDB</text></g><!--cluster rvous--><g id="cluster_rvous"><path d="M392.5,506 C392.5,496 505,496 505,496 C505,496 617.5,496 617.5,506 L617.5,626 C617.5,636 505,636 505,636 C505,636 392.5,636 392.5,626 L392.5,506 " fill="none" style="stroke:#181818;stroke-width:1.0;"/><path d="M392.5,506 C392.5,516 505,516 505,516 C505,516 617.5,516 617.5,506 " fill="none" style="stroke:#181818;stroke-width:1.0;"/><text fill="#000000" font-family="sans-serif" font-size="14" font-weight="bold" lengthAdjust="spacing" textLength="88" x="461" y="532.5332">Rendezvous</text></g><!--cluster Edge cluster--><g id="cluster_Edge cluster"><rect fill="none" height="231" rx="2.5" ry="2.5" style="stroke:#181818;stroke-width:1.0;" width="126" x="683.5" y="215"/><text fill="#000000" font-family="sans-serif" font-size="14" font-weight="bold" lengthAdjust="spacing" textLength="89" x="702" y="231.5332">Edge cluster</text></g><!--entity manager--><g id="elem_manager"><rect fill="#F1F1F1" height="37.6094" rx="2.5" ry="2.5" style="stroke:#181818;stroke-width:0.5;" width="76" x="149.5" y="63"/><text fill="#000000" font-family="sans-serif" font-size="14" lengthAdjust="spacing" textLength="56" x="159.5" y="87.5332">Manager</text></g><!--entity mqtt--><g id="elem_mqtt"><rect fill="#F1F1F1" height="37.6094" rx="2.5" ry="2.5" style="stroke:#181818;stroke-width:0.5;" width="60" x="583.5" y="63"/><text fill="#000000" font-family="sans-serif" font-size="14" lengthAdjust="spacing" textLength="40" x="593.5" y="87.5332">MQTT</text></g><!--entity recon--><g id="elem_recon"><rect fill="#F1F1F1" height="37.6094" rx="2.5" ry="2.5" style="stroke:#181818;stroke-width:0.5;" width="105" x="398" y="392"/><text fill="#000000" font-family="sans-serif" font-size="14" lengthAdjust="spacing" textLength="85" x="408" y="416.5332">Reconcilation</text></g><!--entity connection--><g id="elem_connection"><path d="M134,273.5 L134,306.1094 A2.5,2.5 0 0 0 136.5,308.6094 L280.5,308.6094 A2.5,2.5 0 0 0 283,306.1094 L283,281 L273,271 L136.5,271 A2.5,2.5 0 0 0 134,273.5 " fill="#F1F1F1" style="stroke:#181818;stroke-width:0.5;"/><path d="M273,271 L273,278.5 A2.5,2.5 0 0 0 275.5,281 L283,281 " fill="#F1F1F1" style="stroke:#181818;stroke-width:0.5;"/><text fill="#000000" font-family="sans-serif" font-size="14" lengthAdjust="spacing" textLength="129" x="144" y="295.5332">Connection/Instance</text></g><!--entity deployment--><g id="elem_deployment"><path d="M318.5,273.5 L318.5,306.1094 A2.5,2.5 0 0 0 321,308.6094 L446,308.6094 A2.5,2.5 0 0 0 448.5,306.1094 L448.5,281 L438.5,271 L321,271 A2.5,2.5 0 0 0 318.5,273.5 " fill="#F1F1F1" style="stroke:#181818;stroke-width:0.5;"/><path d="M438.5,271 L438.5,278.5 A2.5,2.5 0 0 0 441,281 L448.5,281 " fill="#F1F1F1" style="stroke:#181818;stroke-width:0.5;"/><text fill="#000000" font-family="sans-serif" font-size="14" lengthAdjust="spacing" textLength="110" x="328.5" y="295.5332">Edge deployment</text></g><!--entity config--><g id="elem_config"><path d="M483.5,273.5 L483.5,306.1094 A2.5,2.5 0 0 0 486,308.6094 L617,308.6094 A2.5,2.5 0 0 0 619.5,306.1094 L619.5,281 L609.5,271 L486,271 A2.5,2.5 0 0 0 483.5,273.5 " fill="#F1F1F1" style="stroke:#181818;stroke-width:0.5;"/><path d="M609.5,271 L609.5,278.5 A2.5,2.5 0 0 0 612,281 L619.5,281 " fill="#F1F1F1" style="stroke:#181818;stroke-width:0.5;"/><text fill="#000000" font-family="sans-serif" font-size="14" lengthAdjust="spacing" textLength="116" x="493.5" y="295.5332">Edge Agent config</text></g><!--entity rvreq--><g id="elem_rvreq"><path d="M528,584.5 L528,617.1094 A2.5,2.5 0 0 0 530.5,619.6094 L598.5,619.6094 A2.5,2.5 0 0 0 601,617.1094 L601,592 L591,582 L530.5,582 A2.5,2.5 0 0 0 528,584.5 " fill="#F1F1F1" style="stroke:#181818;stroke-width:0.5;"/><path d="M591,582 L591,589.5 A2.5,2.5 0 0 0 593.5,592 L601,592 " fill="#F1F1F1" style="stroke:#181818;stroke-width:0.5;"/><text fill="#000000" font-family="sans-serif" font-size="14" lengthAdjust="spacing" textLength="53" x="538" y="606.5332">Request</text></g><!--entity rvres--><g id="elem_rvres"><path d="M408.5,584.5 L408.5,617.1094 A2.5,2.5 0 0 0 411,619.6094 L490,619.6094 A2.5,2.5 0 0 0 492.5,617.1094 L492.5,592 L482.5,582 L411,582 A2.5,2.5 0 0 0 408.5,584.5 " fill="#F1F1F1" style="stroke:#181818;stroke-width:0.5;"/><path d="M482.5,582 L482.5,589.5 A2.5,2.5 0 0 0 485,592 L492.5,592 " fill="#F1F1F1" style="stroke:#181818;stroke-width:0.5;"/><text fill="#000000" font-family="sans-serif" font-size="14" lengthAdjust="spacing" textLength="64" x="418.5" y="606.5332">Response</text></g><!--entity sync--><g id="elem_sync"><rect fill="#F1F1F1" height="37.6094" rx="2.5" ry="2.5" style="stroke:#181818;stroke-width:0.5;" width="88" x="699.5" y="271"/><text fill="#000000" font-family="sans-serif" font-size="14" lengthAdjust="spacing" textLength="68" x="709.5" y="295.5332">Edge Sync</text></g><!--entity agent--><g id="elem_agent"><rect fill="#F1F1F1" height="37.6094" rx="2.5" ry="2.5" style="stroke:#181818;stroke-width:0.5;" width="94" x="699.5" y="392"/><text fill="#000000" font-family="sans-serif" font-size="14" lengthAdjust="spacing" textLength="74" x="709.5" y="416.5332">Edge Agent</text></g><!--entity admin--><g id="elem_admin"><ellipse cx="41.5" cy="51.5" fill="#F1F1F1" rx="8" ry="8" style="stroke:#181818;stroke-width:0.5;"/><path d="M41.5,59.5 L41.5,86.5 M28.5,67.5 L54.5,67.5 M41.5,86.5 L28.5,101.5 M41.5,86.5 L54.5,101.5 " fill="none" style="stroke:#181818;stroke-width:0.5;"/><text fill="#000000" font-family="sans-serif" font-size="14" lengthAdjust="spacing" textLength="71" x="6" y="117.5332">Admin user</text></g><!--entity consumer--><g id="elem_consumer"><ellipse cx="564.5" cy="732.5" fill="#F1F1F1" rx="8" ry="8" style="stroke:#181818;stroke-width:0.5;"/><path d="M564.5,740.5 L564.5,767.5 M551.5,748.5 L577.5,748.5 M564.5,767.5 L551.5,782.5 M564.5,767.5 L577.5,782.5 " fill="none" style="stroke:#181818;stroke-width:0.5;"/><text fill="#000000" font-family="sans-serif" font-size="14" lengthAdjust="spacing" textLength="65" x="532" y="798.5332">Consumer</text></g><!--entity device--><g id="elem_device"><polygon fill="#F1F1F1" points="910,276,920,266,993,266,993,303.6094,983,313.6094,910,313.6094,910,276" style="stroke:#181818;stroke-width:0.5;"/><line style="stroke:#181818;stroke-width:0.5;" x1="983" x2="993" y1="276" y2="266"/><line style="stroke:#181818;stroke-width:0.5;" x1="910" x2="983" y1="276" y2="276"/><line style="stroke:#181818;stroke-width:0.5;" x1="983" x2="983" y1="276" y2="313.6094"/><text fill="#000000" font-family="sans-serif" font-size="14" lengthAdjust="spacing" textLength="43" x="925" y="300.5332">Device</text></g><!--link admin to manager--><g id="link_admin_manager"><path d="M77.22,82 C99.08,82 121.05,82 143.34,82 " fill="none" id="admin-to-manager" style="stroke:#181818;stroke-width:1.0;"/><polygon fill="#181818" points="149.34,82,140.34,78,144.34,82,140.34,86,149.34,82" style="stroke:#181818;stroke-width:1.0;"/><text fill="#000000" font-family="sans-serif" font-size="13" lengthAdjust="spacing" textLength="15" x="105.75" y="75.4951">[1]</text></g><!--link manager to connection--><g id="link_manager_connection"><path d="M189.36,101.28 C193.35,140.37 201.849,223.7412 205.829,262.8012 " fill="none" id="manager-to-connection" style="stroke:#181818;stroke-width:2.0;"/><polygon fill="#181818" points="206.64,270.76,208.8136,262.4971,202.8445,263.1053,206.64,270.76" style="stroke:#181818;stroke-width:2.0;"/><text fill="#000000" font-family="sans-serif" font-size="13" lengthAdjust="spacing" textLength="15" x="196.5" y="165.4951">[2]</text></g><!--reverse link rvreq to consumer--><g id="link_rvreq_consumer"><path d="M564.5,628.04 C564.5,653.05 564.5,690.87 564.5,723.7 " fill="none" id="rvreq-backto-consumer" style="stroke:#181818;stroke-width:2.0;"/><polygon fill="#181818" points="564.5,620.04,561.5,628.04,567.5,628.04,564.5,620.04" style="stroke:#181818;stroke-width:2.0;"/><text fill="#000000" font-family="sans-serif" font-size="13" lengthAdjust="spacing" textLength="15" x="565.5" y="690.4951">[3]</text></g><!--reverse link recon to rvreq--><g id="link_recon_rvreq"><path d="M470.6548,434.7569 C483.4748,449.6469 497.4,467.05 510.5,488 C530.18,519.48 547.79,559.22 557.23,581.91 " fill="none" id="recon-backto-rvreq" style="stroke:#181818;stroke-width:1.0;"/><polygon fill="#181818" points="466.74,430.21,469.5809,439.6402,470.0023,433.9991,475.6435,434.4205,466.74,430.21" style="stroke:#181818;stroke-width:1.0;"/><text fill="#000000" font-family="sans-serif" font-size="13" lengthAdjust="spacing" textLength="15" x="505.5" y="476.4951">[4]</text></g><!--link connection to recon--><g id="link_connection_recon"><path d="M245.25,309.07 C290.87,331.51 362.8156,366.8827 408.4156,389.3027 " fill="none" id="connection-to-recon" style="stroke:#181818;stroke-width:1.0;"/><polygon fill="#181818" points="413.8,391.95,407.4883,384.3894,409.313,389.7439,403.9585,391.5686,413.8,391.95" style="stroke:#181818;stroke-width:1.0;"/><text fill="#000000" font-family="sans-serif" font-size="13" lengthAdjust="spacing" textLength="15" x="351.5" y="358.4951">[4]</text></g><!--reverse link deployment to recon--><g id="link_deployment_recon"><path d="M397.6037,316.0417 C410.1937,338.4117 427.59,369.31 440.23,391.76 " fill="none" id="deployment-backto-recon" style="stroke:#181818;stroke-width:2.0;"/><polygon fill="#181818" points="393.68,309.07,394.9893,317.5131,400.2181,314.5703,393.68,309.07" style="stroke:#181818;stroke-width:2.0;"/><text fill="#000000" font-family="sans-serif" font-size="13" lengthAdjust="spacing" textLength="15" x="423.5" y="358.4951">[5]</text></g><!--reverse link config to recon--><g id="link_config_recon"><path d="M530.9843,315.1702 C512.0043,337.5402 485.03,369.31 465.98,391.76 " fill="none" id="config-backto-recon" style="stroke:#181818;stroke-width:2.0;"/><polygon fill="#181818" points="536.16,309.07,528.6967,313.2293,533.2718,317.1111,536.16,309.07" style="stroke:#181818;stroke-width:2.0;"/><text fill="#000000" font-family="sans-serif" font-size="13" lengthAdjust="spacing" textLength="15" x="504.5" y="358.4951">[5]</text></g><!--link recon to rvres--><g id="link_recon_rvres"><path d="M450.5,430.03 C450.5,465.87 450.5,539.73 450.5,575.75 " fill="none" id="recon-to-rvres" style="stroke:#181818;stroke-width:2.0;"/><polygon fill="#181818" points="450.5,581.75,454.5,572.75,450.5,576.75,446.5,572.75,450.5,581.75" style="stroke:#181818;stroke-width:2.0;"/><text fill="#000000" font-family="sans-serif" font-size="13" lengthAdjust="spacing" textLength="15" x="451.5" y="476.4951">[5]</text></g><!--link deployment to sync--><g id="link_deployment_sync"><path d="M391.92,270.69 C404.16,245.36 429.52,202.01 466.5,184 C534.03,151.11 565.97,155.58 635.5,184 C678.54,201.59 710.2877,240.5948 727.8777,266.0348 " fill="none" id="deployment-to-sync" style="stroke:#181818;stroke-width:1.0;"/><polygon fill="#181818" points="731.29,270.97,729.4616,261.2923,728.4464,266.8574,722.8814,265.8421,731.29,270.97" style="stroke:#181818;stroke-width:1.0;"/><text fill="#000000" font-family="sans-serif" font-size="13" lengthAdjust="spacing" textLength="15" x="567" y="165.4951">[6]</text></g><!--link sync to agent--><g id="link_sync_agent"><path d="M743.96,309.07 C744.52,331.44 745.2669,361.3126 745.8369,383.7626 " fill="none" id="sync-to-agent" style="stroke:#181818;stroke-width:2.0;"/><polygon fill="#181818" points="746.04,391.76,748.836,383.6864,742.8379,383.8387,746.04,391.76" style="stroke:#181818;stroke-width:2.0;"/><text fill="#000000" font-family="sans-serif" font-size="13" lengthAdjust="spacing" textLength="15" x="745.5" y="358.4951">[6]</text></g><!--link config to agent--><g id="link_config_agent"><path d="M581.12,309.07 C617.87,331.51 675.0683,366.4046 711.8083,388.8246 " fill="none" id="config-to-agent" style="stroke:#181818;stroke-width:1.0;"/><polygon fill="#181818" points="716.93,391.95,711.3311,383.8474,712.6619,389.3455,707.1638,390.6763,716.93,391.95" style="stroke:#181818;stroke-width:1.0;"/><text fill="#000000" font-family="sans-serif" font-size="13" lengthAdjust="spacing" textLength="15" x="666.5" y="358.4951">[7]</text></g><!--link device to agent--><g id="link_device_agent"><path d="M934.1,314.22 C921.52,329.61 903.3,349.25 883.5,362 C856.06,379.67 827.1041,390.1448 799.4741,397.7648 " fill="none" id="device-to-agent" style="stroke:#181818;stroke-width:1.0;"/><polygon fill="#181818" points="793.69,399.36,803.4295,400.8233,798.5101,398.0307,801.3027,393.1112,793.69,399.36" style="stroke:#181818;stroke-width:1.0;"/><text fill="#000000" font-family="sans-serif" font-size="13" lengthAdjust="spacing" textLength="15" x="905.5" y="358.4951">[7]</text></g><!--link agent to mqtt--><g id="link_agent_mqtt"><path d="M766.03,391.87 C780.02,377.46 797.71,355.97 805.5,333 C827.76,267.34 842.2,235.83 805.5,177 C769.85,119.85 694.1269,97.6494 649.6469,88.8894 " fill="none" id="agent-to-mqtt" style="stroke:#181818;stroke-width:1.0;"/><polygon fill="#181818" points="643.76,87.73,651.8175,93.3937,648.6658,88.6962,653.3633,85.5445,643.76,87.73" style="stroke:#181818;stroke-width:1.0;"/><text fill="#000000" font-family="sans-serif" font-size="13" lengthAdjust="spacing" textLength="15" x="828.5" y="295.4951">[7]</text></g><!--link rvres to consumer--><g id="link_rvres_consumer"><path d="M463.36,620.04 C481.17,645.05 510.3385,685.9834 533.7285,718.8134 " fill="none" id="rvres-to-consumer" style="stroke:#181818;stroke-width:1.0;"/><polygon fill="#181818" points="537.21,723.7,535.2455,714.0491,534.3087,719.6278,528.73,718.6911,537.21,723.7" style="stroke:#181818;stroke-width:1.0;"/><text fill="#000000" font-family="sans-serif" font-size="13" lengthAdjust="spacing" textLength="15" x="514.5" y="690.4951">[8]</text></g><!--link mqtt to consumer--><g id="link_mqtt_consumer"><path d="M643.53,86.3 C726.49,95.97 956.21,126.82 1010.5,177 C1048.89,212.49 1046.5,236.71 1046.5,289 C1046.5,289 1046.5,289 1046.5,602 C1046.5,696.89 711.6973,744.6156 603.2073,757.6256 " fill="none" id="mqtt-to-consumer" style="stroke:#181818;stroke-width:1.0;"/><polygon fill="#181818" points="597.25,758.34,606.6622,761.24,602.2144,757.7447,605.7097,753.2969,597.25,758.34" style="stroke:#181818;stroke-width:1.0;"/><text fill="#000000" font-family="sans-serif" font-size="13" lengthAdjust="spacing" textLength="15" x="1047.5" y="416.4951">[8]</text></g><!--SRC=[VPDDRyCW38Rl_XKezsZQzpIfaRfsXnrsMDVRb0CBD8gKa3IGIjtK_pw3eILfDKx6Vh1VO-25QNkMp4LJAJPesIUCQyRj5ZZ55gtIG-CZXT-0QeLaoLBkgaAwY70cG2yBmrLPOtGXbUbvpOfwqCOc-0M6YvVePyaxLsXHsePiS7713V_cMhhIcwfSleJIk17VFejTcwecIc7HgbLNRqfZSQ-eEFed1rv5AL5lLxVx1gLu-M5x2PuxoQGW4kFG0uow-bYlgQMjCN5W9V5CKTNS2d94RptJbbTI2VcpQmTDZBNEEbx9xI2ryKGljsTntU6Wv17GNkbXD1_NskNXkD3dNXKkXKRZBEhkX9wBjMnkzsvOsbTf5aOQXB5dzdMTG_3EPbaM3IWGDpb0U69iDdIMSWsUajpcG9vqwB2CkqJ6uZ9tEKIPKz6ECIA0FBx6QVe1kS_710qyBdCYH3iZcNei10c8CgUemzvaZ3pau5mkH-Rlbqq8yCMfbGc3o6CEzFl-8yXf1uCFauqN4K0jM9d76SJ84uxFdhqO3yGV]--></g></svg>