<?xml version="1.0" encoding="us-ascii" standalone="no"?><svg xmlns="http://www.w3.org/2000/svg" xmlns:xlink="http://www.w3.org/1999/xlink" contentStyleType="text/css" height="440px" preserveAspectRatio="none" style="width:582px;height:440px;background:#FFFFFF;" version="1.1" viewBox="0 0 582 440" width="582px" zoomAndPan="magnify"><defs/><g><!--cluster Central cluster--><g id="cluster_Central cluster"><rect fill="none" height="287" rx="2.5" ry="2.5" style="stroke:#181818;stroke-width:1.0;" width="381" x="93.5" y="7"/><text fill="#000000" font-family="sans-serif" font-size="14" font-weight="bold" lengthAdjust="spacing" textLength="104" x="232" y="23.5332">Central cluster</text></g><!--cluster configdb--><g id="cluster_configdb"><path d="M117.5,175 C117.5,165 284,165 284,165 C284,165 450.5,165 450.5,175 L450.5,260 C450.5,270 284,270 284,270 C284,270 117.5,270 117.5,260 L117.5,175 " fill="none" style="stroke:#181818;stroke-width:1.0;"/><path d="M117.5,175 C117.5,185 284,185 284,185 C284,185 450.5,185 450.5,175 " fill="none" style="stroke:#181818;stroke-width:1.0;"/><text fill="#000000" font-family="sans-serif" font-size="14" font-weight="bold" lengthAdjust="spacing" textLength="66" x="251" y="201.5332">ConfigDB</text></g><!--cluster Edge cluster--><g id="cluster_Edge cluster"><rect fill="none" height="90" rx="2.5" ry="2.5" style="stroke:#181818;stroke-width:1.0;" width="266" x="163.5" y="344"/><text fill="#000000" font-family="sans-serif" font-size="14" font-weight="bold" lengthAdjust="spacing" textLength="89" x="252" y="360.5332">Edge cluster</text></g><!--entity manager--><g id="elem_manager"><rect fill="#F1F1F1" height="37.6094" rx="2.5" ry="2.5" style="stroke:#181818;stroke-width:0.5;" width="76" x="160.5" y="43"/><text fill="#000000" font-family="sans-serif" font-size="14" lengthAdjust="spacing" textLength="56" x="170.5" y="67.5332">Manager</text></g><!--entity mqtt--><g id="elem_mqtt"><rect fill="#F1F1F1" height="37.6094" rx="2.5" ry="2.5" style="stroke:#181818;stroke-width:0.5;" width="60" x="398.5" y="43"/><text fill="#000000" font-family="sans-serif" font-size="14" lengthAdjust="spacing" textLength="40" x="408.5" y="67.5332">MQTT</text></g><!--entity deployment--><g id="elem_deployment"><path d="M133.5,218.5 L133.5,251.1094 A2.5,2.5 0 0 0 136,253.6094 L261,253.6094 A2.5,2.5 0 0 0 263.5,251.1094 L263.5,226 L253.5,216 L136,216 A2.5,2.5 0 0 0 133.5,218.5 " fill="#F1F1F1" style="stroke:#181818;stroke-width:0.5;"/><path d="M253.5,216 L253.5,223.5 A2.5,2.5 0 0 0 256,226 L263.5,226 " fill="#F1F1F1" style="stroke:#181818;stroke-width:0.5;"/><text fill="#000000" font-family="sans-serif" font-size="14" lengthAdjust="spacing" textLength="110" x="143.5" y="240.5332">Edge deployment</text></g><!--entity config--><g id="elem_config"><path d="M298.5,218.5 L298.5,251.1094 A2.5,2.5 0 0 0 301,253.6094 L432,253.6094 A2.5,2.5 0 0 0 434.5,251.1094 L434.5,226 L424.5,216 L301,216 A2.5,2.5 0 0 0 298.5,218.5 " fill="#F1F1F1" style="stroke:#181818;stroke-width:0.5;"/><path d="M424.5,216 L424.5,223.5 A2.5,2.5 0 0 0 427,226 L434.5,226 " fill="#F1F1F1" style="stroke:#181818;stroke-width:0.5;"/><text fill="#000000" font-family="sans-serif" font-size="14" lengthAdjust="spacing" textLength="116" x="308.5" y="240.5332">Edge Agent config</text></g><!--entity sync--><g id="elem_sync"><rect fill="#F1F1F1" height="37.6094" rx="2.5" ry="2.5" style="stroke:#181818;stroke-width:0.5;" width="88" x="179.5" y="380"/><text fill="#000000" font-family="sans-serif" font-size="14" lengthAdjust="spacing" textLength="68" x="189.5" y="404.5332">Edge Sync</text></g><!--entity agent--><g id="elem_agent"><rect fill="#F1F1F1" height="37.6094" rx="2.5" ry="2.5" style="stroke:#181818;stroke-width:0.5;" width="94" x="319.5" y="380"/><text fill="#000000" font-family="sans-serif" font-size="14" lengthAdjust="spacing" textLength="74" x="329.5" y="404.5332">Edge Agent</text></g><!--entity admin--><g id="elem_admin"><ellipse cx="41.5" cy="31.5" fill="#F1F1F1" rx="8" ry="8" style="stroke:#181818;stroke-width:0.5;"/><path d="M41.5,39.5 L41.5,66.5 M28.5,47.5 L54.5,47.5 M41.5,66.5 L28.5,81.5 M41.5,66.5 L54.5,81.5 " fill="none" style="stroke:#181818;stroke-width:0.5;"/><text fill="#000000" font-family="sans-serif" font-size="14" lengthAdjust="spacing" textLength="71" x="6" y="97.5332">Admin user</text></g><!--entity consumer--><g id="elem_consumer"><ellipse cx="542.5" cy="31.5" fill="#F1F1F1" rx="8" ry="8" style="stroke:#181818;stroke-width:0.5;"/><path d="M542.5,39.5 L542.5,66.5 M529.5,47.5 L555.5,47.5 M542.5,66.5 L529.5,81.5 M542.5,66.5 L555.5,81.5 " fill="none" style="stroke:#181818;stroke-width:0.5;"/><text fill="#000000" font-family="sans-serif" font-size="14" lengthAdjust="spacing" textLength="65" x="510" y="97.5332">Consumer</text></g><!--entity device--><g id="elem_device"><polygon fill="#F1F1F1" points="465,385,475,375,548,375,548,412.6094,538,422.6094,465,422.6094,465,385" style="stroke:#181818;stroke-width:0.5;"/><line style="stroke:#181818;stroke-width:0.5;" x1="538" x2="548" y1="385" y2="375"/><line style="stroke:#181818;stroke-width:0.5;" x1="465" x2="538" y1="385" y2="385"/><line style="stroke:#181818;stroke-width:0.5;" x1="538" x2="538" y1="385" y2="422.6094"/><text fill="#000000" font-family="sans-serif" font-size="14" lengthAdjust="spacing" textLength="43" x="480" y="409.5332">Device</text></g><!--link admin to manager--><g id="link_admin_manager"><path d="M77.13,62 C101.92,62 128.93,62 154.27,62 " fill="none" id="admin-to-manager" style="stroke:#181818;stroke-width:1.0;"/><polygon fill="#181818" points="160.27,62,151.27,58,155.27,62,151.27,66,160.27,62" style="stroke:#181818;stroke-width:1.0;"/><text fill="#000000" font-family="sans-serif" font-size="13" lengthAdjust="spacing" textLength="15" x="111.25" y="55.4951">[1]</text></g><!--link manager to deployment--><g id="link_manager_deployment"><path d="M198.5,81.3 C198.5,114.21 198.5,175.01 198.5,207.83 " fill="none" id="manager-to-deployment" style="stroke:#181818;stroke-width:2.0;"/><polygon fill="#181818" points="198.5,215.83,201.5,207.83,195.5,207.83,198.5,215.83" style="stroke:#181818;stroke-width:2.0;"/><text fill="#000000" font-family="sans-serif" font-size="13" lengthAdjust="spacing" textLength="15" x="199.5" y="145.4951">[2]</text></g><!--link manager to config--><g id="link_manager_config"><path d="M216.48,81.3 C248.81,114.21 310.8038,177.3029 343.0438,210.1229 " fill="none" id="manager-to-config" style="stroke:#181818;stroke-width:2.0;"/><polygon fill="#181818" points="348.65,215.83,345.1839,208.0206,340.9037,212.2253,348.65,215.83" style="stroke:#181818;stroke-width:2.0;"/><text fill="#000000" font-family="sans-serif" font-size="13" lengthAdjust="spacing" textLength="15" x="283.5" y="145.4951">[2]</text></g><!--link deployment to sync--><g id="link_deployment_sync"><path d="M201.32,254.27 C206.12,285.38 214.9151,342.3802 219.7351,373.6202 " fill="none" id="deployment-to-sync" style="stroke:#181818;stroke-width:1.0;"/><polygon fill="#181818" points="220.65,379.55,223.2309,370.0453,219.8876,374.6085,215.3244,371.2652,220.65,379.55" style="stroke:#181818;stroke-width:1.0;"/><text fill="#000000" font-family="sans-serif" font-size="13" lengthAdjust="spacing" textLength="15" x="212.5" y="324.4951">[3]</text></g><!--link sync to agent--><g id="link_sync_agent"><path d="M267.57,399 C283.98,399 294.67,399 311.35,399 " fill="none" id="sync-to-agent" style="stroke:#181818;stroke-width:2.0;"/><polygon fill="#181818" points="319.35,399,311.35,396,311.35,402,319.35,399" style="stroke:#181818;stroke-width:2.0;"/><text fill="#000000" font-family="sans-serif" font-size="13" lengthAdjust="spacing" textLength="15" x="286" y="392.4951">[3]</text></g><!--link config to agent--><g id="link_config_agent"><path d="M366.5,254.27 C366.5,285.38 366.5,342.31 366.5,373.55 " fill="none" id="config-to-agent" style="stroke:#181818;stroke-width:1.0;"/><polygon fill="#181818" points="366.5,379.55,370.5,370.55,366.5,374.55,362.5,370.55,366.5,379.55" style="stroke:#181818;stroke-width:1.0;"/><text fill="#000000" font-family="sans-serif" font-size="13" lengthAdjust="spacing" textLength="15" x="367.5" y="324.4951">[4]</text></g><!--link device to agent--><g id="link_device_agent"><path d="M464.55,399 C448.48,399 436.03,399 419.51,399 " fill="none" id="device-to-agent" style="stroke:#181818;stroke-width:1.0;"/><polygon fill="#181818" points="413.51,399,422.51,403,418.51,399,422.51,395,413.51,399" style="stroke:#181818;stroke-width:1.0;"/><text fill="#000000" font-family="sans-serif" font-size="13" lengthAdjust="spacing" textLength="15" x="431.75" y="392.4951">[5]</text></g><!--link agent to mqtt--><g id="link_agent_mqtt"><path d="M389.77,379.97 C410.18,362.55 438.43,334.13 450.5,302 C479.81,223.99 451.9041,127.6554 437.4141,86.7654 " fill="none" id="agent-to-mqtt" style="stroke:#181818;stroke-width:1.0;"/><polygon fill="#181818" points="435.41,81.11,434.6458,90.9292,437.0801,85.8228,442.1864,88.2571,435.41,81.11" style="stroke:#181818;stroke-width:1.0;"/><text fill="#000000" font-family="sans-serif" font-size="13" lengthAdjust="spacing" textLength="15" x="463.5" y="240.4951">[5]</text></g><!--link mqtt to consumer--><g id="link_mqtt_consumer"><path d="M458.75,62 C474.45,62 487.65,62 503.7,62 " fill="none" id="mqtt-to-consumer" style="stroke:#181818;stroke-width:1.0;"/><polygon fill="#181818" points="509.7,62,500.7,58,504.7,62,500.7,66,509.7,62" style="stroke:#181818;stroke-width:1.0;"/><text fill="#000000" font-family="sans-serif" font-size="13" lengthAdjust="spacing" textLength="15" x="476.75" y="55.4951">[6]</text></g><!--SRC=[RP9DRuCm38Rl_XKMTmxxF4mgKjVkkCEqtYOEQP8Y90WR2PEggVzzjaEcmCh9zXE_VfsWT1X6BBQcRnrEteu5Ae-AKr2HxGRdftucUax03SPYiRVVhRP2Z8G0ezL1kQOZkhCkZAf3tKq-iC0F87sgeJeMhyfH56Nx62_ms-4GsLS88CIee8xAM_5qQflzS_94YJdEyloTMfx_OXfBlZwxuToJvcmpfTSERsLs5CoqvUW5BeljfE7wQeBUpqwBXgVW7vL9yR8vOcsvTIohT1l9tnD-tDIGYfjDLMLRCBrTqMWwzHA5x7n90zXHmdSrICgDqI1cWudEQjotu4JlHPhV7TUKyKCDiSOxqIiYhgWKo-hlhyheOms_]--></g></svg>