<?xml version="1.0" encoding="us-ascii" standalone="no"?><svg xmlns="http://www.w3.org/2000/svg" xmlns:xlink="http://www.w3.org/1999/xlink" contentStyleType="text/css" height="563px" preserveAspectRatio="none" style="width:561px;height:563px;background:#FFFFFF;" version="1.1" viewBox="0 0 561 563" width="561px" zoomAndPan="magnify"><defs/><g><!--cluster Central cluster--><g id="cluster_Central cluster"><rect fill="none" height="267" rx="2.5" ry="2.5" style="stroke:#181818;stroke-width:1.0;" width="452" x="7" y="147.5"/><text fill="#000000" font-family="sans-serif" font-size="14" font-weight="bold" lengthAdjust="spacing" textLength="104" x="181" y="164.0332">Central cluster</text></g><!--cluster configdb--><g id="cluster_configdb"><path d="M31,295.5 C31,285.5 197.5,285.5 197.5,285.5 C197.5,285.5 364,285.5 364,295.5 L364,380.5 C364,390.5 197.5,390.5 197.5,390.5 C197.5,390.5 31,390.5 31,380.5 L31,295.5 " fill="none" style="stroke:#181818;stroke-width:1.0;"/><path d="M31,295.5 C31,305.5 197.5,305.5 197.5,305.5 C197.5,305.5 364,305.5 364,295.5 " fill="none" style="stroke:#181818;stroke-width:1.0;"/><text fill="#000000" font-family="sans-serif" font-size="14" font-weight="bold" lengthAdjust="spacing" textLength="66" x="164.5" y="322.0332">ConfigDB</text></g><!--cluster Edge cluster--><g id="cluster_Edge cluster"><rect fill="none" height="90" rx="2.5" ry="2.5" style="stroke:#181818;stroke-width:1.0;" width="266" x="70" y="464.5"/><text fill="#000000" font-family="sans-serif" font-size="14" font-weight="bold" lengthAdjust="spacing" textLength="89" x="158.5" y="481.0332">Edge cluster</text></g><!--entity manager--><g id="elem_manager"><rect fill="#F1F1F1" height="37.6094" rx="2.5" ry="2.5" style="stroke:#181818;stroke-width:0.5;" width="76" x="242" y="183.5"/><text fill="#000000" font-family="sans-serif" font-size="14" lengthAdjust="spacing" textLength="56" x="252" y="208.0332">Manager</text></g><!--entity mqtt--><g id="elem_mqtt"><rect fill="#F1F1F1" height="37.6094" rx="2.5" ry="2.5" style="stroke:#181818;stroke-width:0.5;" width="60" x="383" y="336.5"/><text fill="#000000" font-family="sans-serif" font-size="14" lengthAdjust="spacing" textLength="40" x="393" y="361.0332">MQTT</text></g><!--entity auth--><g id="elem_auth"><rect fill="#F1F1F1" height="37.6094" rx="2.5" ry="2.5" style="stroke:#181818;stroke-width:0.5;" width="49" x="370.5" y="183.5"/><text fill="#000000" font-family="sans-serif" font-size="14" lengthAdjust="spacing" textLength="29" x="380.5" y="208.0332">Auth</text></g><!--entity deployment--><g id="elem_deployment"><path d="M47,339 L47,371.6094 A2.5,2.5 0 0 0 49.5,374.1094 L174.5,374.1094 A2.5,2.5 0 0 0 177,371.6094 L177,346.5 L167,336.5 L49.5,336.5 A2.5,2.5 0 0 0 47,339 " fill="#F1F1F1" style="stroke:#181818;stroke-width:0.5;"/><path d="M167,336.5 L167,344 A2.5,2.5 0 0 0 169.5,346.5 L177,346.5 " fill="#F1F1F1" style="stroke:#181818;stroke-width:0.5;"/><text fill="#000000" font-family="sans-serif" font-size="14" lengthAdjust="spacing" textLength="110" x="57" y="361.0332">Edge deployment</text></g><!--entity config--><g id="elem_config"><path d="M212,339 L212,371.6094 A2.5,2.5 0 0 0 214.5,374.1094 L345.5,374.1094 A2.5,2.5 0 0 0 348,371.6094 L348,346.5 L338,336.5 L214.5,336.5 A2.5,2.5 0 0 0 212,339 " fill="#F1F1F1" style="stroke:#181818;stroke-width:0.5;"/><path d="M338,336.5 L338,344 A2.5,2.5 0 0 0 340.5,346.5 L348,346.5 " fill="#F1F1F1" style="stroke:#181818;stroke-width:0.5;"/><text fill="#000000" font-family="sans-serif" font-size="14" lengthAdjust="spacing" textLength="116" x="222" y="361.0332">Edge Agent config</text></g><!--entity sync--><g id="elem_sync"><rect fill="#F1F1F1" height="37.6094" rx="2.5" ry="2.5" style="stroke:#181818;stroke-width:0.5;" width="88" x="86" y="500.5"/><text fill="#000000" font-family="sans-serif" font-size="14" lengthAdjust="spacing" textLength="68" x="96" y="525.0332">Edge Sync</text></g><!--entity agent--><g id="elem_agent"><rect fill="#F1F1F1" height="37.6094" rx="2.5" ry="2.5" style="stroke:#181818;stroke-width:0.5;" width="94" x="226" y="500.5"/><text fill="#000000" font-family="sans-serif" font-size="14" lengthAdjust="spacing" textLength="74" x="236" y="525.0332">Edge Agent</text></g><!--entity admin--><g id="elem_admin"><ellipse cx="337" cy="14" fill="#F1F1F1" rx="8" ry="8" style="stroke:#181818;stroke-width:0.5;"/><path d="M337,22 L337,49 M324,30 L350,30 M337,49 L324,64 M337,49 L350,64 " fill="none" style="stroke:#181818;stroke-width:0.5;"/><text fill="#000000" font-family="sans-serif" font-size="14" lengthAdjust="spacing" textLength="71" x="301.5" y="80.0332">Admin user</text></g><!--entity consumer--><g id="elem_consumer"><ellipse cx="522" cy="489" fill="#F1F1F1" rx="8" ry="8" style="stroke:#181818;stroke-width:0.5;"/><path d="M522,497 L522,524 M509,505 L535,505 M522,524 L509,539 M522,524 L535,539 " fill="none" style="stroke:#181818;stroke-width:0.5;"/><text fill="#000000" font-family="sans-serif" font-size="14" lengthAdjust="spacing" textLength="65" x="489.5" y="555.0332">Consumer</text></g><!--entity device--><g id="elem_device"><polygon fill="#F1F1F1" points="371.5,505.5,381.5,495.5,454.5,495.5,454.5,533.1094,444.5,543.1094,371.5,543.1094,371.5,505.5" style="stroke:#181818;stroke-width:0.5;"/><line style="stroke:#181818;stroke-width:0.5;" x1="444.5" x2="454.5" y1="505.5" y2="495.5"/><line style="stroke:#181818;stroke-width:0.5;" x1="371.5" x2="444.5" y1="505.5" y2="505.5"/><line style="stroke:#181818;stroke-width:0.5;" x1="444.5" x2="444.5" y1="505.5" y2="543.1094"/><text fill="#000000" font-family="sans-serif" font-size="14" lengthAdjust="spacing" textLength="43" x="386.5" y="530.0332">Device</text></g><!--link admin to manager--><g id="link_admin_manager"><path d="M323.06,83.66 C311.45,115.41 297.5075,153.5638 288.6475,177.8338 " fill="none" id="admin-to-manager" style="stroke:#181818;stroke-width:1.0;"/><polygon fill="#181818" points="286.59,183.47,293.4338,176.3874,288.3046,178.7732,285.9189,173.644,286.59,183.47" style="stroke:#181818;stroke-width:1.0;"/><text fill="#000000" font-family="sans-serif" font-size="13" lengthAdjust="spacing" textLength="15" x="312" y="127.9951">[1]</text></g><!--link manager to deployment--><g id="link_manager_deployment"><path d="M258.88,221.56 C241.58,236.44 216.54,258.14 195,277.5 C172.93,297.34 152.3813,316.4501 135.6613,332.1701 " fill="none" id="manager-to-deployment" style="stroke:#181818;stroke-width:2.0;"/><polygon fill="#181818" points="131.29,336.28,140.587,333.0294,134.9328,332.8551,135.1071,327.2009,131.29,336.28" style="stroke:#181818;stroke-width:2.0;"/><text fill="#000000" font-family="sans-serif" font-size="13" lengthAdjust="spacing" textLength="15" x="223" y="265.9951">[2]</text></g><!--link manager to config--><g id="link_manager_config"><path d="M280,221.71 C280,250.74 280,301.16 280,330.22 " fill="none" id="manager-to-config" style="stroke:#181818;stroke-width:2.0;"/><polygon fill="#181818" points="280,336.22,284,327.22,280,331.22,276,327.22,280,336.22" style="stroke:#181818;stroke-width:2.0;"/><text fill="#000000" font-family="sans-serif" font-size="13" lengthAdjust="spacing" textLength="15" x="281" y="265.9951">[2]</text></g><!--link deployment to sync--><g id="link_deployment_sync"><path d="M114.03,374.77 C117.49,405.88 123.8176,462.8467 127.2876,494.0867 " fill="none" id="deployment-to-sync" style="stroke:#181818;stroke-width:1.0;"/><polygon fill="#181818" points="127.95,500.05,130.932,490.6634,127.398,495.0806,122.9809,491.5466,127.95,500.05" style="stroke:#181818;stroke-width:1.0;"/><text fill="#000000" font-family="sans-serif" font-size="13" lengthAdjust="spacing" textLength="15" x="123" y="444.9951">[3]</text></g><!--link sync to agent--><g id="link_sync_agent"><path d="M174.07,519.5 C190.48,519.5 203.17,519.5 219.85,519.5 " fill="none" id="sync-to-agent" style="stroke:#181818;stroke-width:2.0;"/><polygon fill="#181818" points="225.85,519.5,216.85,515.5,220.85,519.5,216.85,523.5,225.85,519.5" style="stroke:#181818;stroke-width:2.0;"/><text fill="#000000" font-family="sans-serif" font-size="13" lengthAdjust="spacing" textLength="15" x="192.5" y="512.9951">[3]</text></g><!--link config to agent--><g id="link_config_agent"><path d="M279.21,374.77 C277.87,405.88 275.409,462.8156 274.059,494.0556 " fill="none" id="config-to-agent" style="stroke:#181818;stroke-width:1.0;"/><polygon fill="#181818" points="273.8,500.05,278.1848,491.2311,274.0159,495.0547,270.1923,490.8857,273.8,500.05" style="stroke:#181818;stroke-width:1.0;"/><text fill="#000000" font-family="sans-serif" font-size="13" lengthAdjust="spacing" textLength="15" x="277" y="444.9951">[4]</text></g><!--link device to agent--><g id="link_device_agent"><path d="M371.05,519.5 C354.98,519.5 342.53,519.5 326.01,519.5 " fill="none" id="device-to-agent" style="stroke:#181818;stroke-width:1.0;"/><polygon fill="#181818" points="320.01,519.5,329.01,523.5,325.01,519.5,329.01,515.5,320.01,519.5" style="stroke:#181818;stroke-width:1.0;"/><text fill="#000000" font-family="sans-serif" font-size="13" lengthAdjust="spacing" textLength="15" x="338.25" y="512.9951">[5]</text></g><!--link agent to mqtt--><g id="link_agent_mqtt"><path d="M291.47,500.35 C310.36,481.48 340.22,450.81 364,422.5 C377.13,406.87 387.4111,393.0056 396.9911,379.4856 " fill="none" id="agent-to-mqtt" style="stroke:#181818;stroke-width:1.0;"/><polygon fill="#181818" points="400.46,374.59,391.9929,379.6208,397.5692,378.6696,398.5204,384.246,400.46,374.59" style="stroke:#181818;stroke-width:1.0;"/><text fill="#000000" font-family="sans-serif" font-size="13" lengthAdjust="spacing" textLength="15" x="358" y="444.9951">[5]</text></g><!--link admin to auth--><g id="link_admin_auth"><path d="M351.19,83.66 C362.99,115.41 377.1777,153.5766 386.2077,177.8466 " fill="none" id="admin-to-auth" style="stroke:#181818;stroke-width:1.0;"/><polygon fill="#181818" points="388.3,183.47,388.9105,173.6401,386.5564,178.7838,381.4127,176.4298,388.3,183.47" style="stroke:#181818;stroke-width:1.0;"/><text fill="#000000" font-family="sans-serif" font-size="13" lengthAdjust="spacing" textLength="15" x="368" y="127.9951">[6]</text></g><!--link auth to mqtt--><g id="link_auth_mqtt"><path d="M397.17,221.71 C400.63,250.74 406.6506,301.2021 410.1106,330.2621 " fill="none" id="auth-to-mqtt" style="stroke:#181818;stroke-width:1.0;"/><polygon fill="#181818" points="410.82,336.22,413.7279,326.8102,410.2289,331.2551,405.784,327.756,410.82,336.22" style="stroke:#181818;stroke-width:1.0;"/><text fill="#000000" font-family="sans-serif" font-size="13" lengthAdjust="spacing" textLength="15" x="403" y="265.9951">[6]</text></g><!--link mqtt to consumer--><g id="link_mqtt_consumer"><path d="M425.29,374.77 C442.44,400.26 470.6008,442.1118 492.9908,475.3918 " fill="none" id="mqtt-to-consumer" style="stroke:#181818;stroke-width:1.0;"/><polygon fill="#181818" points="496.34,480.37,494.635,470.6699,493.549,476.2215,487.9973,475.1355,496.34,480.37" style="stroke:#181818;stroke-width:1.0;"/><text fill="#000000" font-family="sans-serif" font-size="13" lengthAdjust="spacing" textLength="15" x="475" y="444.9951">[6]</text></g><!--SRC=[RP9DJyCm38Rl_XLHxptmUK3QfB9nv83O3VNW9LbNgKsXIP4cjF-ExJJGm7Ao_SIlNpT57OPH5PNfMwScRyT2eLV8AM1acy7vgP-9dXDmWx6gsDhFLbiXHaA0qUg0hkc8RgmB8tPATvCFBF05YWusL5V5CpgAecmVumo_x7QHVOIm1DKKZj4b1I34OC0zUYjc3sspVKncAJ7xUIwVGyl6danZoV1xDvnwqfpzf_JIvKfcHy65jbmzmpbRMnekxopezUIqQ7WA_b6P5FVZYBNbELIvJfyf-NjGRrSrfE9gjLui8VGwfz7pJozHM3IKD80T9NnJWwJK6FtzdaXdEUxBBX2z5Md-8THVolYkXbZZdUXvSscYQMLkfbVEy3qrSwsys4nKYapJpxfWtm00]--></g></svg>