<!--
  -  Factory+ / AMRC Connectivity Stack (ACS) Manager component
  -  Copyright 2023 AMRC
  -->

<svg xmlns="http://www.w3.org/2000/svg" viewBox="0 0 144 144"><defs>
<style type="text/css">
	@media (prefers-color-scheme: light) { 
		.a{fill:#440099} 
		.c{fill:transparent;}
		.b{fill:#fff}
  }
	@media (prefers-color-scheme: dark) { 
		.a{fill:transparent} 
		.c{fill:none;stroke:#fff;stroke-miterlimit:10;stroke-width:4px;}
		.b{fill:#fff;}
  }
	</style>
  </defs><path class="a" d="M72.35,2.92a214.9,214.9,0,0,0-57.76,7.86V60a95.53,95.53,0,0,0,4.49,30,73.74,73.74,0,0,0,12.3,22.8c9.31,11.68,22.47,21,40.2,28.36l.78.32.77-.32c17.74-7.41,30.89-16.69,40.21-28.36A73.4,73.4,0,0,0,125.63,90a95.24,95.24,0,0,0,4.49-30V10.78A215,215,0,0,0,72.35,2.92Z"/><path class="b" d="M44.87,87V85.09L41.2,87.76,40,86.07h0a44.64,44.64,0,0,0-6.32,8.11l0,0h0a44.88,44.88,0,0,0,9.66-3.52h0L42.11,89l2.79-2Z"/><polygon class="b" points="106.05 42.52 108.67 40.62 107.77 39.39 105.17 41.29 105.74 37.67 98.85 43.81 98.48 46.14 90.36 52.04 92.94 52.04 99.37 47.37 101.71 47.74 109.67 43.09 106.05 42.52"/><path class="b" d="M72.36,91.57h0a7.69,7.69,0,0,1-2.14-.31L52.62,104l-1.22-1.69h0a44.92,44.92,0,0,0-6.32,8.1l0,0h.05A44.8,44.8,0,0,0,54.74,107h0l-1.23-1.7,18.85-13.7Z"/><polygon class="b" points="117.47 58.8 120.08 56.9 119.19 55.67 116.58 57.57 117.15 53.95 110.27 60.09 109.89 62.42 99.84 69.73 99.84 71.61 110.79 63.65 113.12 64.02 121.09 59.37 117.47 58.8"/><path class="b" d="M60.26,88.07H57.68L46.91,95.9l-1.23-1.69h0a44.48,44.48,0,0,0-6.32,8.1l0,0h0A44.88,44.88,0,0,0,49,98.83h0l-1.23-1.7,12.47-9.06Z"/><polygon class="b" points="111.77 50.66 114.37 48.76 113.48 47.53 110.87 49.43 111.44 45.81 104.55 51.95 104.19 54.28 99.84 57.45 99.84 59.31 105.08 55.51 107.42 55.88 115.37 51.23 111.77 50.66"/><path class="b" d="M94.21,15.46a6.56,6.56,0,0,0-.79-.06h0a6.37,6.37,0,0,0-4.5,1.48,2.45,2.45,0,0,0-.67,1.82h0V19a.66.66,0,0,0,0,.15h0a2.08,2.08,0,0,0,.06.36,2.2,2.2,0,0,0-.74-.52,6.44,6.44,0,0,0-4.74.27A4.93,4.93,0,0,0,86,22.85a2.94,2.94,0,0,0,1.77-.08l-.54,1a3.29,3.29,0,0,1-6.11-2.19l-.74-.14-.74-.14a3.29,3.29,0,0,1-6.52-.59V18.62a2.56,2.56,0,0,0,1.88.95,6.45,6.45,0,0,0,4.28-2.08A6.48,6.48,0,0,0,75,15.41a2,2,0,0,0-.82.18A2.54,2.54,0,0,0,75,13.8C75,11.06,72.36,9,72.36,9s-2.68,2-2.68,4.78a2.52,2.52,0,0,0,.87,1.79,2,2,0,0,0-.82-.18,6.45,6.45,0,0,0-4.28,2.08,6.48,6.48,0,0,0,4.28,2.08,2.58,2.58,0,0,0,1.88-.95v2.05a3.3,3.3,0,0,1-2.7,3.23,3.23,3.23,0,0,1-2.45-.53,3.27,3.27,0,0,1-1.37-2.11l-.74.14-.74.14a3.29,3.29,0,0,1-6.11,2.19l-.54-1a2.93,2.93,0,0,0,1.77.08,4.91,4.91,0,0,0,3.15-3.56A6.46,6.46,0,0,0,57.13,19a2,2,0,0,0-.73.52c0-.12,0-.24.06-.36h0a.76.76,0,0,1,0-.15V18.7h0a2.43,2.43,0,0,0-.67-1.82,6.34,6.34,0,0,0-4.5-1.48h0a4.44,4.44,0,0,0-.79.06,8.72,8.72,0,0,0,0,1.29,34.44,34.44,0,0,1,3.62,4.59,35.53,35.53,0,0,1,3.62,7.11l2.91,1.68L59.05,32.9c.26,1.14.45,2.31.6,3.49h.07a63.14,63.14,0,0,0,12.63,1.27h0A63.14,63.14,0,0,0,85,36.4h.07a33.45,33.45,0,0,1,.6-3.49l-1.6-2.77L87,28.45a34.51,34.51,0,0,1,3.62-7.11,35.28,35.28,0,0,1,3.62-4.59,8.64,8.64,0,0,0,0-1.29ZM79.63,27.18a1.9,1.9,0,1,1-1.9,1.9A1.9,1.9,0,0,1,79.63,27.18Zm-7.28-2L75,27.89l-2.68,2.68-2.68-2.68Zm-7.29,2a1.9,1.9,0,1,1-1.9,1.9A1.9,1.9,0,0,1,65.06,27.18Zm18.64,8a62.13,62.13,0,0,1-11.34,1,62.13,62.13,0,0,1-11.34-1c0-.22-.06-.42-.1-.62a62.26,62.26,0,0,1,22.88,0l-.09.62Z"/><polygon class="b" points="72.36 54.71 51.05 39.23 48.72 39.6 40.75 34.95 44.37 34.38 41.76 32.48 42.64 31.25 45.26 33.15 44.69 29.53 51.57 35.67 51.95 38 72.36 52.84 92.77 38 93.14 35.67 100.03 29.53 99.46 33.15 102.06 31.25 102.96 32.48 100.34 34.38 103.96 34.95 96 39.6 93.66 39.23 72.36 54.71"/><path class="b" d="M96,56.34l0,27.94H76.21l-.14.58a3.82,3.82,0,0,1-7.43,0l-.14-.58H48.66l0-27.94H47.15V85.8h20.2a5.34,5.34,0,0,0,10,0H97.56V56.34Z"/><path class="b" d="M111.09,94.18a44.23,44.23,0,0,0-6.32-8.1h0l-1.23,1.68-3.67-2.67V87l2.79,2-1.23,1.69h0a43.84,43.84,0,0,0,9.66,3.52h0l0,0Z"/><polygon class="b" points="51.77 52.04 54.36 52.04 46.23 46.14 45.86 43.81 38.97 37.67 39.55 41.29 36.94 39.39 36.05 40.62 38.66 42.52 35.04 43.09 43.01 47.74 45.34 47.37 51.77 52.04"/><polygon class="b" points="44.87 57.45 40.52 54.28 40.16 51.95 33.26 45.81 33.84 49.43 31.23 47.53 30.35 48.76 32.95 50.66 29.33 51.23 37.29 55.88 39.64 55.51 44.87 59.31 44.87 57.45"/><path class="b" d="M105.37,102.31a44.51,44.51,0,0,0-6.32-8.09h0L97.81,95.9,87,88.07H84.46l12.47,9.06L95.7,98.82h0a43.84,43.84,0,0,0,9.66,3.52h0l0,0Z"/><polygon class="b" points="44.87 69.73 34.81 62.42 34.45 60.09 27.56 53.95 28.13 57.57 25.52 55.67 24.63 56.9 27.25 58.8 23.63 59.37 31.58 64.02 33.93 63.65 44.87 71.61 44.87 69.73"/><path class="b" d="M93.34,102.36h0L92.11,104,74.51,91.26a7.74,7.74,0,0,1-2.14.31h0l18.85,13.7L90,107h0a44,44,0,0,0,9.65,3.52h0l0,0a44.51,44.51,0,0,0-6.32-8.09Z"/><path class="b" d="M44.87,74.68V72.8l-9.38,6.82-1.22-1.69h0A44.64,44.64,0,0,0,27.93,86l0,0H28a44.8,44.8,0,0,0,9.65-3.52h0l-1.23-1.7,8.49-6.17Z"/><path class="b" d="M116.79,86.05a43.38,43.38,0,0,0-6.32-8.1h0l-1.22,1.68-9.38-6.82v1.88l8.49,6.17-1.22,1.69h0a43.84,43.84,0,0,0,9.66,3.52h0l0,0Z"/><path class="b" d="M82.59,122.54c.23-.74,1-2.91,1.18-3.64a2.5,2.5,0,0,0-1.59-3.14l-3.44-.62,2.42-2.53a2.5,2.5,0,0,0-.55-3.48l-3.1-2.25a2.52,2.52,0,0,0-1.47-.47,2.47,2.47,0,0,0-2,1l-1.66,3.08-1.66-3.08a2.47,2.47,0,0,0-2-1,2.52,2.52,0,0,0-1.47.47l-3.1,2.25a2.5,2.5,0,0,0-.55,3.48L66,115.14l-3.44.62A2.49,2.49,0,0,0,61,118.9c.23.73.94,2.9,1.18,3.64a2.5,2.5,0,0,0,2.37,1.72,2.88,2.88,0,0,0,.77-.12l3.14-1.52L68,126.09a2.48,2.48,0,0,0,2.48,2.49h3.83a2.48,2.48,0,0,0,2.48-2.49l-.46-3.47,3.14,1.52a2.33,2.33,0,0,0,.77.12,2.51,2.51,0,0,0,2.37-1.72Zm-7.79-2.35h-.27a9.11,9.11,0,0,1-2.16,3.41,9,9,0,0,1-2.16-3.41h-.27a9.46,9.46,0,0,1-3.64-1,9,9,0,0,1,2.57-3.12,9,9,0,0,1-.26-4,9.16,9.16,0,0,1,3.76,1.48A9,9,0,0,1,76.13,112a9,9,0,0,1-.26,4,9.17,9.17,0,0,1,2.57,3.12A9.53,9.53,0,0,1,74.8,120.19Z"/><circle class="b" cx="72.37" cy="117.21" r="1.64"/><path class="b" d="M62,114.16l.11,0,.11,0,.37-.06-.26-.27-.08-.09-.06-.09a4.24,4.24,0,0,1-.75-1.78,11.49,11.49,0,0,0-2.25.84l-.32.17.16.34a10.87,10.87,0,0,0,1.34,2,4.1,4.1,0,0,1,1.64-1Z"/><path class="b" d="M72.07,106.44l.06.1.06.09.17.33.17-.33.06-.09.06-.1a4.17,4.17,0,0,1,1.46-1.25,11.58,11.58,0,0,0-1.49-1.88l-.26-.26-.26.26a12,12,0,0,0-1.5,1.88A4.2,4.2,0,0,1,72.07,106.44Z"/><path class="b" d="M85.51,112.66a11.66,11.66,0,0,0-2.27-.84,3.92,3.92,0,0,1-.74,1.78l-.06.1-.08.08-.26.27.37.07.11,0,.1,0a4.07,4.07,0,0,1,1.65,1,13.2,13.2,0,0,0,1.34-2l.16-.34Z"/><path class="b" d="M80.22,125.94a4.05,4.05,0,0,1-1.29-.21l-.11,0-.1,0-.33-.16,0,.36v.23A4.15,4.15,0,0,1,78,128a11.51,11.51,0,0,0,2.32.65l.36.05.07-.37a10.94,10.94,0,0,0,.09-2.4A3.28,3.28,0,0,1,80.22,125.94Z"/><path class="b" d="M66.28,126.08v-.23l.06-.36-.33.16-.1,0-.11,0a4.05,4.05,0,0,1-1.29.21,3.47,3.47,0,0,1-.64-.06,12.14,12.14,0,0,0,.1,2.4l.07.37.36-.05a11.51,11.51,0,0,0,2.32-.65A4.19,4.19,0,0,1,66.28,126.08Z"/><path class="b" d="M68.63,66.68c-.32,0-.52.41-.56,1.16h.62c.33,0,.42-.1.42-.44s-.19-.72-.49-.72Z"/><path class="b" d="M53.72,65.47h-.21c0,.64,0,1.27,0,1.93v.26c0,.67,0,1.32,0,2h.2c.88,0,1.4-.78,1.4-2.08s-.51-2.08-1.4-2.08Z"/><path class="b" d="M66.64,53.56H50.2V81.31H66.64a6.51,6.51,0,0,1,5,2.31V58.53A5,5,0,0,0,66.64,53.56ZM58,64.32a.69.69,0,0,1,.72.69.68.68,0,0,1-.72.68.69.69,0,1,1,0-1.37Zm-4.3,5.89H51.45v-.53l.59-.06c0-.63,0-1.26,0-1.93v-.27c0-.63,0-1.27,0-1.91l-.59-.06v-.53h2.4a2.5,2.5,0,0,1,2.75,2.64,2.59,2.59,0,0,1-2.89,2.66Zm5.39,0H56.9v-.48l.43-.09V68.12c0-.42,0-.66,0-1l-.5-.07v-.4l1.72-.55.19.12,0,1.17v2.21l.39.07v.48Zm1.63.12a2.66,2.66,0,0,1-1.4-.37l0,0,0-1.06h.73l.14.8a1.77,1.77,0,0,0,.54.1c.43,0,.65-.14.65-.41s-.11-.36-.63-.51l-.43-.13a1.22,1.22,0,0,1-1-1.22c0-.81.69-1.35,1.7-1.35a2.7,2.7,0,0,1,1.27.33l0,0-.06.95h-.73l-.16-.69a1.42,1.42,0,0,0-.39,0c-.16,0-.54,0-.54.39,0,.15,0,.3.63.47l.38.11A1.25,1.25,0,0,1,62.55,69c0,.85-.69,1.37-1.84,1.37Zm5.75-2.94a.56.56,0,0,1-.59.45c-.23,0-.62-.11-.66-.8l0-.34h-.1c-.41,0-.89.37-.89,1.43,0,.85.38,1.36,1,1.36a1.06,1.06,0,0,0,.84-.42l0,0,.36.32,0,0a1.75,1.75,0,0,1-1.67,1,2,2,0,0,1-2-2.07,2.05,2.05,0,0,1,2.19-2.1,1.43,1.43,0,0,1,1.53,1.21h0v0Zm2.61,2.07a1.19,1.19,0,0,0,.91-.4l0,0,.35.33,0,0a1.78,1.78,0,0,1-1.7,1,1.93,1.93,0,0,1-2-2.08,2,2,0,0,1,2.08-2.09,1.6,1.6,0,0,1,1.69,1.72,1.49,1.49,0,0,1,0,.43v0H68.08c.07.7.42,1.09,1,1.09Z"/><path class="b" d="M77.51,65.47h-.22c0,.64,0,1.27,0,1.93v.26c0,.67,0,1.32,0,2h.2c.89,0,1.4-.78,1.4-2.08s-.5-2.08-1.4-2.08Z"/><path class="b" d="M82.72,66.68c-.42,0-.62.49-.62,1.56,0,1.39.36,1.55.62,1.55s.6-.5.6-1.55S83.13,66.68,82.72,66.68Z"/><path class="b" d="M78.08,53.56a5,5,0,0,0-5,5V83.62a6.48,6.48,0,0,1,5-2.31H94.52V53.56ZM77.49,70.2H75.23v-.53l.6-.07c0-.62,0-1.25,0-1.92v-.27c0-.63,0-1.27,0-1.91l-.6-.06v-.53h2.4a2.5,2.5,0,0,1,2.75,2.64,2.59,2.59,0,0,1-2.89,2.66Zm5.23.12a2,2,0,0,1-2.06-2.1,2.06,2.06,0,1,1,2.06,2.1Zm6-2.94a.55.55,0,0,1-.59.45c-.22,0-.61-.11-.65-.8l-.06-.34h-.09c-.41,0-.9.37-.9,1.43,0,.85.39,1.36,1,1.36a1.06,1.06,0,0,0,.84-.42l0,0,.34.31,0,.05a1.74,1.74,0,0,1-1.67,1,1.94,1.94,0,0,1-2-2.07,2,2,0,0,1,2.18-2.1,1.42,1.42,0,0,1,1.53,1.21h0v0Zm2.61,2.07a1.21,1.21,0,0,0,.92-.41l0,0,.34.32,0,.05a1.76,1.76,0,0,1-1.7.95,1.92,1.92,0,0,1-2-2.08A2,2,0,0,1,91,66.15a1.59,1.59,0,0,1,1.69,1.72,1.49,1.49,0,0,1-.05.43v0H90.33c.06.69.42,1.09,1,1.09Z"/><path class="b" d="M90.88,66.68c-.32,0-.53.41-.56,1.16h.61c.34,0,.42-.1.42-.44s-.18-.72-.48-.72Z"/><path class="c" d="M72.35,2.92a214.9,214.9,0,0,0-57.76,7.86V60a95.53,95.53,0,0,0,4.49,30,73.74,73.74,0,0,0,12.3,22.8c9.31,11.68,22.47,21,40.2,28.36l.78.32.77-.32c17.74-7.41,30.89-16.69,40.21-28.36A73.4,73.4,0,0,0,125.63,90a95.24,95.24,0,0,0,4.49-30V10.78A215,215,0,0,0,72.35,2.92Z"/></svg>